<mxfile host="app.diagrams.net" agent="Mozilla/5.0 (Windows NT 10.0; Win64; x64) AppleWebKit/537.36 (KHTML, like Gecko) Chrome/136.0.0.0 Safari/537.36" version="26.1.1" pages="2">
  <diagram name="conseitual" id="pQqYzjMNaCNKukWrtE1W">
    <mxGraphModel dx="880" dy="468" grid="1" gridSize="11" guides="1" tooltips="1" connect="1" arrows="1" fold="1" page="1" pageScale="1" pageWidth="827" pageHeight="1169" math="0" shadow="0">
      <root>
        <mxCell id="0" />
        <mxCell id="1" parent="0" />
        <mxCell id="olo3JEbU_huKBxk7MDHp-1" value="aluno" style="rounded=0;whiteSpace=wrap;html=1;fillColor=#dae8fc;strokeColor=#6c8ebf;" vertex="1" parent="1">
          <mxGeometry x="319" y="66" width="132" height="44" as="geometry" />
        </mxCell>
        <mxCell id="olo3JEbU_huKBxk7MDHp-2" value="cuso&amp;nbsp;" style="rounded=0;whiteSpace=wrap;html=1;fillColor=#dae8fc;strokeColor=#6c8ebf;" vertex="1" parent="1">
          <mxGeometry x="572" y="220" width="132" height="44" as="geometry" />
        </mxCell>
        <mxCell id="GK6-ULtQEdE14yX976ux-11" style="edgeStyle=orthogonalEdgeStyle;rounded=0;orthogonalLoop=1;jettySize=auto;html=1;exitX=1;exitY=0.5;exitDx=0;exitDy=0;entryX=0;entryY=0.5;entryDx=0;entryDy=0;fillColor=#dae8fc;strokeColor=#6c8ebf;" edge="1" parent="1" source="olo3JEbU_huKBxk7MDHp-3" target="GK6-ULtQEdE14yX976ux-10">
          <mxGeometry relative="1" as="geometry" />
        </mxCell>
        <mxCell id="olo3JEbU_huKBxk7MDHp-3" value="turma" style="rounded=0;whiteSpace=wrap;html=1;fillColor=#dae8fc;strokeColor=#6c8ebf;" vertex="1" parent="1">
          <mxGeometry x="320" y="220" width="131" height="44" as="geometry" />
        </mxCell>
        <mxCell id="olo3JEbU_huKBxk7MDHp-4" value="professor&amp;nbsp;" style="rounded=0;whiteSpace=wrap;html=1;fillColor=#dae8fc;strokeColor=#6c8ebf;" vertex="1" parent="1">
          <mxGeometry y="220" width="131" height="44" as="geometry" />
        </mxCell>
        <mxCell id="olo3JEbU_huKBxk7MDHp-10" style="edgeStyle=orthogonalEdgeStyle;rounded=0;orthogonalLoop=1;jettySize=auto;html=1;exitX=0.5;exitY=0;exitDx=0;exitDy=0;entryX=0.5;entryY=1;entryDx=0;entryDy=0;fillColor=#dae8fc;strokeColor=#6c8ebf;" edge="1" parent="1" source="olo3JEbU_huKBxk7MDHp-9" target="olo3JEbU_huKBxk7MDHp-1">
          <mxGeometry relative="1" as="geometry" />
        </mxCell>
        <mxCell id="olo3JEbU_huKBxk7MDHp-11" style="edgeStyle=orthogonalEdgeStyle;rounded=0;orthogonalLoop=1;jettySize=auto;html=1;exitX=0.5;exitY=1;exitDx=0;exitDy=0;entryX=0.5;entryY=0;entryDx=0;entryDy=0;fillColor=#dae8fc;strokeColor=#6c8ebf;" edge="1" parent="1" source="olo3JEbU_huKBxk7MDHp-9" target="olo3JEbU_huKBxk7MDHp-3">
          <mxGeometry relative="1" as="geometry" />
        </mxCell>
        <mxCell id="0qUtDFSTAgkab39MEyH3-4" value="" style="edgeStyle=orthogonalEdgeStyle;rounded=0;orthogonalLoop=1;jettySize=auto;html=1;fillColor=#dae8fc;strokeColor=#6c8ebf;" edge="1" parent="1" source="olo3JEbU_huKBxk7MDHp-9" target="0qUtDFSTAgkab39MEyH3-3">
          <mxGeometry relative="1" as="geometry" />
        </mxCell>
        <mxCell id="olo3JEbU_huKBxk7MDHp-9" value="tem" style="rhombus;whiteSpace=wrap;html=1;fillColor=#dae8fc;strokeColor=#6c8ebf;" vertex="1" parent="1">
          <mxGeometry x="368" y="143" width="33" height="36" as="geometry" />
        </mxCell>
        <mxCell id="GK6-ULtQEdE14yX976ux-12" style="edgeStyle=orthogonalEdgeStyle;rounded=0;orthogonalLoop=1;jettySize=auto;html=1;exitX=1;exitY=0.5;exitDx=0;exitDy=0;entryX=0;entryY=0.5;entryDx=0;entryDy=0;fillColor=#dae8fc;strokeColor=#6c8ebf;" edge="1" parent="1" source="GK6-ULtQEdE14yX976ux-10" target="olo3JEbU_huKBxk7MDHp-2">
          <mxGeometry relative="1" as="geometry" />
        </mxCell>
        <mxCell id="GK6-ULtQEdE14yX976ux-10" value="tem" style="rhombus;whiteSpace=wrap;html=1;fillColor=#dae8fc;strokeColor=#6c8ebf;" vertex="1" parent="1">
          <mxGeometry x="484" y="225.5" width="33" height="33" as="geometry" />
        </mxCell>
        <mxCell id="GK6-ULtQEdE14yX976ux-15" value="" style="edgeStyle=orthogonalEdgeStyle;rounded=0;orthogonalLoop=1;jettySize=auto;html=1;fillColor=#dae8fc;strokeColor=#6c8ebf;" edge="1" parent="1" source="GK6-ULtQEdE14yX976ux-13" target="olo3JEbU_huKBxk7MDHp-4">
          <mxGeometry relative="1" as="geometry" />
        </mxCell>
        <mxCell id="xOh5-o8niRZ_OLEziTpn-2" style="edgeStyle=orthogonalEdgeStyle;rounded=0;orthogonalLoop=1;jettySize=auto;html=1;exitX=1;exitY=0.5;exitDx=0;exitDy=0;entryX=0;entryY=0.5;entryDx=0;entryDy=0;fillColor=#dae8fc;strokeColor=#6c8ebf;" edge="1" parent="1" source="GK6-ULtQEdE14yX976ux-13" target="olo3JEbU_huKBxk7MDHp-3">
          <mxGeometry relative="1" as="geometry" />
        </mxCell>
        <mxCell id="GK6-ULtQEdE14yX976ux-13" value="tem" style="rhombus;whiteSpace=wrap;html=1;fillColor=#dae8fc;strokeColor=#6c8ebf;" vertex="1" parent="1">
          <mxGeometry x="198" y="222.75" width="33" height="38.5" as="geometry" />
        </mxCell>
        <mxCell id="0qUtDFSTAgkab39MEyH3-3" value="matricula&amp;nbsp;" style="whiteSpace=wrap;html=1;fillColor=#dae8fc;strokeColor=#6c8ebf;" vertex="1" parent="1">
          <mxGeometry x="616" y="85" width="132" height="44" as="geometry" />
        </mxCell>
        <mxCell id="uyYZHXK7MaeCQTh2AWmP-1" value="1" style="text;html=1;align=center;verticalAlign=middle;resizable=0;points=[];autosize=1;strokeColor=none;fillColor=none;" vertex="1" parent="1">
          <mxGeometry x="397" y="110" width="33" height="33" as="geometry" />
        </mxCell>
        <mxCell id="uyYZHXK7MaeCQTh2AWmP-2" value="n" style="text;html=1;align=center;verticalAlign=middle;resizable=0;points=[];autosize=1;strokeColor=none;fillColor=none;" vertex="1" parent="1">
          <mxGeometry x="450" y="209" width="33" height="33" as="geometry" />
        </mxCell>
        <mxCell id="uyYZHXK7MaeCQTh2AWmP-3" value="1" style="text;html=1;align=center;verticalAlign=middle;resizable=0;points=[];autosize=1;strokeColor=none;fillColor=none;" vertex="1" parent="1">
          <mxGeometry x="125" y="217" width="33" height="33" as="geometry" />
        </mxCell>
        <mxCell id="uyYZHXK7MaeCQTh2AWmP-6" value="1" style="text;html=1;align=center;verticalAlign=middle;resizable=0;points=[];autosize=1;strokeColor=none;fillColor=none;" vertex="1" parent="1">
          <mxGeometry x="539" y="209" width="33" height="33" as="geometry" />
        </mxCell>
        <mxCell id="uyYZHXK7MaeCQTh2AWmP-7" value="1" style="text;html=1;align=center;verticalAlign=middle;resizable=0;points=[];autosize=1;strokeColor=none;fillColor=none;" vertex="1" parent="1">
          <mxGeometry x="638" y="129" width="33" height="33" as="geometry" />
        </mxCell>
        <mxCell id="uyYZHXK7MaeCQTh2AWmP-8" value="n" style="text;html=1;align=center;verticalAlign=middle;resizable=0;points=[];autosize=1;strokeColor=none;fillColor=none;" vertex="1" parent="1">
          <mxGeometry x="693" y="129" width="33" height="33" as="geometry" />
        </mxCell>
        <mxCell id="MKSl6FpadQa0qHdo8fkb-1" value="n" style="text;html=1;align=center;verticalAlign=middle;resizable=0;points=[];autosize=1;strokeColor=none;fillColor=none;" vertex="1" parent="1">
          <mxGeometry x="275" y="209" width="33" height="33" as="geometry" />
        </mxCell>
      </root>
    </mxGraphModel>
  </diagram>
  <diagram id="woGCvseq1JrSB-4LRmoc" name="logico">
    <mxGraphModel dx="926" dy="493" grid="1" gridSize="12" guides="1" tooltips="1" connect="1" arrows="1" fold="1" page="1" pageScale="1" pageWidth="827" pageHeight="1169" background="light-dark(#F0F0F0, #1d1d1b)" math="0" shadow="0">
      <root>
        <mxCell id="0" />
        <mxCell id="1" parent="0" />
        <mxCell id="lB3nsHuVr8a7xUawO_GR-5" value="aluno" style="swimlane;fontStyle=0;childLayout=stackLayout;horizontal=1;startSize=30;horizontalStack=0;resizeParent=1;resizeParentMax=0;resizeLast=0;collapsible=1;marginBottom=0;whiteSpace=wrap;html=1;fillColor=#dae8fc;strokeColor=#6c8ebf;" vertex="1" parent="1">
          <mxGeometry x="326" y="176" width="176" height="209" as="geometry" />
        </mxCell>
        <mxCell id="lB3nsHuVr8a7xUawO_GR-6" value="id" style="text;strokeColor=#6c8ebf;fillColor=#dae8fc;align=left;verticalAlign=middle;spacingLeft=4;spacingRight=4;overflow=hidden;points=[[0,0.5],[1,0.5]];portConstraint=eastwest;rotatable=0;whiteSpace=wrap;html=1;" vertex="1" parent="lB3nsHuVr8a7xUawO_GR-5">
          <mxGeometry y="30" width="176" height="30" as="geometry" />
        </mxCell>
        <mxCell id="lB3nsHuVr8a7xUawO_GR-7" value="nome completo" style="text;strokeColor=#6c8ebf;fillColor=#dae8fc;align=left;verticalAlign=middle;spacingLeft=4;spacingRight=4;overflow=hidden;points=[[0,0.5],[1,0.5]];portConstraint=eastwest;rotatable=0;whiteSpace=wrap;html=1;" vertex="1" parent="lB3nsHuVr8a7xUawO_GR-5">
          <mxGeometry y="60" width="176" height="30" as="geometry" />
        </mxCell>
        <mxCell id="lB3nsHuVr8a7xUawO_GR-8" value="email" style="text;strokeColor=#6c8ebf;fillColor=#dae8fc;align=left;verticalAlign=middle;spacingLeft=4;spacingRight=4;overflow=hidden;points=[[0,0.5],[1,0.5]];portConstraint=eastwest;rotatable=0;whiteSpace=wrap;html=1;" vertex="1" parent="lB3nsHuVr8a7xUawO_GR-5">
          <mxGeometry y="90" width="176" height="30" as="geometry" />
        </mxCell>
        <mxCell id="lB3nsHuVr8a7xUawO_GR-10" value="data de nascimento&amp;nbsp;" style="text;strokeColor=#6c8ebf;fillColor=#dae8fc;align=left;verticalAlign=middle;spacingLeft=4;spacingRight=4;overflow=hidden;points=[[0,0.5],[1,0.5]];portConstraint=eastwest;rotatable=0;whiteSpace=wrap;html=1;" vertex="1" parent="lB3nsHuVr8a7xUawO_GR-5">
          <mxGeometry y="120" width="176" height="30" as="geometry" />
        </mxCell>
        <mxCell id="lB3nsHuVr8a7xUawO_GR-11" value="telefone de contato" style="text;strokeColor=#6c8ebf;fillColor=#dae8fc;align=left;verticalAlign=middle;spacingLeft=4;spacingRight=4;overflow=hidden;points=[[0,0.5],[1,0.5]];portConstraint=eastwest;rotatable=0;whiteSpace=wrap;html=1;" vertex="1" parent="lB3nsHuVr8a7xUawO_GR-5">
          <mxGeometry y="150" width="176" height="30" as="geometry" />
        </mxCell>
        <mxCell id="lB3nsHuVr8a7xUawO_GR-17" value="id da turma&amp;nbsp;" style="text;strokeColor=#6c8ebf;fillColor=#dae8fc;align=left;verticalAlign=middle;spacingLeft=4;spacingRight=4;overflow=hidden;points=[[0,0.5],[1,0.5]];portConstraint=eastwest;rotatable=0;whiteSpace=wrap;html=1;" vertex="1" parent="lB3nsHuVr8a7xUawO_GR-5">
          <mxGeometry y="180" width="176" height="29" as="geometry" />
        </mxCell>
        <mxCell id="lB3nsHuVr8a7xUawO_GR-12" value="turma" style="swimlane;fontStyle=0;childLayout=stackLayout;horizontal=1;startSize=30;horizontalStack=0;resizeParent=1;resizeParentMax=0;resizeLast=0;collapsible=1;marginBottom=0;whiteSpace=wrap;html=1;fillColor=#dae8fc;strokeColor=#6c8ebf;" vertex="1" parent="1">
          <mxGeometry x="564" y="176" width="176" height="180" as="geometry" />
        </mxCell>
        <mxCell id="lB3nsHuVr8a7xUawO_GR-13" value="id da turma" style="text;strokeColor=#6c8ebf;fillColor=#dae8fc;align=left;verticalAlign=middle;spacingLeft=4;spacingRight=4;overflow=hidden;points=[[0,0.5],[1,0.5]];portConstraint=eastwest;rotatable=0;whiteSpace=wrap;html=1;" vertex="1" parent="lB3nsHuVr8a7xUawO_GR-12">
          <mxGeometry y="30" width="176" height="30" as="geometry" />
        </mxCell>
        <mxCell id="lB3nsHuVr8a7xUawO_GR-14" value="id curso&amp;nbsp;" style="text;strokeColor=#6c8ebf;fillColor=#dae8fc;align=left;verticalAlign=middle;spacingLeft=4;spacingRight=4;overflow=hidden;points=[[0,0.5],[1,0.5]];portConstraint=eastwest;rotatable=0;whiteSpace=wrap;html=1;" vertex="1" parent="lB3nsHuVr8a7xUawO_GR-12">
          <mxGeometry y="60" width="176" height="30" as="geometry" />
        </mxCell>
        <mxCell id="lB3nsHuVr8a7xUawO_GR-15" value="id professor" style="text;strokeColor=#6c8ebf;fillColor=#dae8fc;align=left;verticalAlign=middle;spacingLeft=4;spacingRight=4;overflow=hidden;points=[[0,0.5],[1,0.5]];portConstraint=eastwest;rotatable=0;whiteSpace=wrap;html=1;" vertex="1" parent="lB3nsHuVr8a7xUawO_GR-12">
          <mxGeometry y="90" width="176" height="30" as="geometry" />
        </mxCell>
        <mxCell id="lB3nsHuVr8a7xUawO_GR-18" value="horário da aula&amp;nbsp;" style="text;strokeColor=#6c8ebf;fillColor=#dae8fc;align=left;verticalAlign=middle;spacingLeft=4;spacingRight=4;overflow=hidden;points=[[0,0.5],[1,0.5]];portConstraint=eastwest;rotatable=0;whiteSpace=wrap;html=1;" vertex="1" parent="lB3nsHuVr8a7xUawO_GR-12">
          <mxGeometry y="120" width="176" height="30" as="geometry" />
        </mxCell>
        <mxCell id="lB3nsHuVr8a7xUawO_GR-19" value="semestre&amp;nbsp;" style="text;strokeColor=#6c8ebf;fillColor=#dae8fc;align=left;verticalAlign=middle;spacingLeft=4;spacingRight=4;overflow=hidden;points=[[0,0.5],[1,0.5]];portConstraint=eastwest;rotatable=0;whiteSpace=wrap;html=1;" vertex="1" parent="lB3nsHuVr8a7xUawO_GR-12">
          <mxGeometry y="150" width="176" height="30" as="geometry" />
        </mxCell>
        <mxCell id="Cc-VzOmLmVa_MTfD3aAc-1" value="professor" style="swimlane;fontStyle=0;childLayout=stackLayout;horizontal=1;startSize=30;horizontalStack=0;resizeParent=1;resizeParentMax=0;resizeLast=0;collapsible=1;marginBottom=0;whiteSpace=wrap;html=1;fillColor=#dae8fc;strokeColor=#6c8ebf;" vertex="1" parent="1">
          <mxGeometry x="120" y="176" width="140" height="150" as="geometry" />
        </mxCell>
        <mxCell id="Cc-VzOmLmVa_MTfD3aAc-4" value="id" style="text;strokeColor=#6c8ebf;fillColor=#dae8fc;align=left;verticalAlign=middle;spacingLeft=4;spacingRight=4;overflow=hidden;points=[[0,0.5],[1,0.5]];portConstraint=eastwest;rotatable=0;whiteSpace=wrap;html=1;" vertex="1" parent="Cc-VzOmLmVa_MTfD3aAc-1">
          <mxGeometry y="30" width="140" height="30" as="geometry" />
        </mxCell>
        <mxCell id="Cc-VzOmLmVa_MTfD3aAc-8" value="nome" style="text;strokeColor=#6c8ebf;fillColor=#dae8fc;align=left;verticalAlign=middle;spacingLeft=4;spacingRight=4;overflow=hidden;points=[[0,0.5],[1,0.5]];portConstraint=eastwest;rotatable=0;whiteSpace=wrap;html=1;strokeWidth=1;" vertex="1" parent="Cc-VzOmLmVa_MTfD3aAc-1">
          <mxGeometry y="60" width="140" height="30" as="geometry" />
        </mxCell>
        <mxCell id="Cc-VzOmLmVa_MTfD3aAc-9" value="email" style="text;strokeColor=#6c8ebf;fillColor=#dae8fc;align=left;verticalAlign=middle;spacingLeft=4;spacingRight=4;overflow=hidden;points=[[0,0.5],[1,0.5]];portConstraint=eastwest;rotatable=0;whiteSpace=wrap;html=1;" vertex="1" parent="Cc-VzOmLmVa_MTfD3aAc-1">
          <mxGeometry y="90" width="140" height="30" as="geometry" />
        </mxCell>
        <mxCell id="Cc-VzOmLmVa_MTfD3aAc-10" value="formação acâdemica&amp;nbsp;" style="text;strokeColor=#6c8ebf;fillColor=#dae8fc;align=left;verticalAlign=middle;spacingLeft=4;spacingRight=4;overflow=hidden;points=[[0,0.5],[1,0.5]];portConstraint=eastwest;rotatable=0;whiteSpace=wrap;html=1;" vertex="1" parent="Cc-VzOmLmVa_MTfD3aAc-1">
          <mxGeometry y="120" width="140" height="30" as="geometry" />
        </mxCell>
        <mxCell id="Cc-VzOmLmVa_MTfD3aAc-5" style="edgeStyle=orthogonalEdgeStyle;rounded=0;orthogonalLoop=1;jettySize=auto;html=1;fillColor=#dae8fc;strokeColor=#6c8ebf;" edge="1" parent="1" source="lB3nsHuVr8a7xUawO_GR-17" target="lB3nsHuVr8a7xUawO_GR-13">
          <mxGeometry relative="1" as="geometry" />
        </mxCell>
        <mxCell id="Cc-VzOmLmVa_MTfD3aAc-13" style="edgeStyle=orthogonalEdgeStyle;rounded=0;orthogonalLoop=1;jettySize=auto;html=1;exitX=0;exitY=0.5;exitDx=0;exitDy=0;fillColor=#dae8fc;strokeColor=#6c8ebf;" edge="1" parent="1" source="Cc-VzOmLmVa_MTfD3aAc-4" target="lB3nsHuVr8a7xUawO_GR-18">
          <mxGeometry relative="1" as="geometry">
            <mxPoint x="96" y="216" as="sourcePoint" />
            <mxPoint x="652" y="291" as="targetPoint" />
            <Array as="points">
              <mxPoint x="120" y="216" />
              <mxPoint x="108" y="216" />
              <mxPoint x="108" y="408" />
              <mxPoint x="792" y="408" />
              <mxPoint x="792" y="312" />
            </Array>
          </mxGeometry>
        </mxCell>
        <mxCell id="YW5_PYhZrbKUFTJA_p5I-2" value="matricula" style="swimlane;fontStyle=0;childLayout=stackLayout;horizontal=1;startSize=30;horizontalStack=0;resizeParent=1;resizeParentMax=0;resizeLast=0;collapsible=1;marginBottom=0;whiteSpace=wrap;html=1;fillColor=#dae8fc;strokeColor=#6c8ebf;" vertex="1" parent="1">
          <mxGeometry x="96" y="432" width="140" height="120" as="geometry" />
        </mxCell>
        <mxCell id="YW5_PYhZrbKUFTJA_p5I-3" value="id" style="text;strokeColor=#6c8ebf;fillColor=#dae8fc;align=left;verticalAlign=middle;spacingLeft=4;spacingRight=4;overflow=hidden;points=[[0,0.5],[1,0.5]];portConstraint=eastwest;rotatable=0;whiteSpace=wrap;html=1;" vertex="1" parent="YW5_PYhZrbKUFTJA_p5I-2">
          <mxGeometry y="30" width="140" height="30" as="geometry" />
        </mxCell>
        <mxCell id="YW5_PYhZrbKUFTJA_p5I-4" value="id turma" style="text;strokeColor=#6c8ebf;fillColor=#dae8fc;align=left;verticalAlign=middle;spacingLeft=4;spacingRight=4;overflow=hidden;points=[[0,0.5],[1,0.5]];portConstraint=eastwest;rotatable=0;whiteSpace=wrap;html=1;" vertex="1" parent="YW5_PYhZrbKUFTJA_p5I-2">
          <mxGeometry y="60" width="140" height="30" as="geometry" />
        </mxCell>
        <mxCell id="YW5_PYhZrbKUFTJA_p5I-5" value="status" style="text;strokeColor=#6c8ebf;fillColor=#dae8fc;align=left;verticalAlign=middle;spacingLeft=4;spacingRight=4;overflow=hidden;points=[[0,0.5],[1,0.5]];portConstraint=eastwest;rotatable=0;whiteSpace=wrap;html=1;" vertex="1" parent="YW5_PYhZrbKUFTJA_p5I-2">
          <mxGeometry y="90" width="140" height="30" as="geometry" />
        </mxCell>
        <mxCell id="3R8Som1BsrotqsbTRluH-3" style="edgeStyle=orthogonalEdgeStyle;rounded=0;orthogonalLoop=1;jettySize=auto;html=1;exitX=1;exitY=0.5;exitDx=0;exitDy=0;entryX=0.978;entryY=0.244;entryDx=0;entryDy=0;entryPerimeter=0;fillColor=#dae8fc;strokeColor=#6c8ebf;" edge="1" parent="1" source="YW5_PYhZrbKUFTJA_p5I-4" target="lB3nsHuVr8a7xUawO_GR-13">
          <mxGeometry relative="1" as="geometry">
            <mxPoint x="804" y="216" as="targetPoint" />
            <Array as="points">
              <mxPoint x="816" y="507" />
              <mxPoint x="816" y="216" />
              <mxPoint x="736" y="216" />
            </Array>
          </mxGeometry>
        </mxCell>
      </root>
    </mxGraphModel>
  </diagram>
</mxfile>
